<?xml version="1.0" encoding="UTF-8" standalone="no"?>
<!DOCTYPE svg PUBLIC "-//W3C//DTD SVG 1.1//EN"
 "http://www.w3.org/Graphics/SVG/1.1/DTD/svg11.dtd">
<!-- Generated by graphviz version 2.40.1 (20161225.0304)
 -->
<!-- Title: dependencies Pages: 1 -->
<svg width="987pt" height="211pt"
 viewBox="0.00 0.00 987.00 211.00" xmlns="http://www.w3.org/2000/svg" xmlns:xlink="http://www.w3.org/1999/xlink">
<g id="graph0" class="graph" transform="scale(1 1) rotate(0) translate(4 207)">
<title>dependencies</title>
<polygon fill="#ffffff" stroke="transparent" points="-4,4 -4,-207 983,-207 983,4 -4,4"/>
<text text-anchor="start" x="468.5091" y="-42.4" font-family="sans-serif" font-weight="bold" font-size="14.00" fill="#000000">Legend</text>
<polygon fill="#ffffb3" stroke="transparent" points="255.5,-10 255.5,-30 275.5,-30 275.5,-10 255.5,-10"/>
<text text-anchor="start" x="279.129" y="-15.4" font-family="sans-serif" font-size="14.00" fill="#000000"> &#160;Declarations</text>
<polygon fill="#8dd3c7" stroke="transparent" points="368.5,-10 368.5,-30 388.5,-30 388.5,-10 368.5,-10"/>
<text text-anchor="start" x="392.2251" y="-15.4" font-family="sans-serif" font-size="14.00" fill="#000000"> &#160;Module</text>
<polygon fill="#80b1d3" stroke="transparent" points="454.5,-10 454.5,-30 474.5,-30 474.5,-10 454.5,-10"/>
<text text-anchor="start" x="478.2812" y="-15.4" font-family="sans-serif" font-size="14.00" fill="#000000"> &#160;Bootstrap</text>
<polygon fill="#fdb462" stroke="transparent" points="551.5,-10 551.5,-30 571.5,-30 571.5,-10 551.5,-10"/>
<text text-anchor="start" x="575.1732" y="-15.4" font-family="sans-serif" font-size="14.00" fill="#000000"> &#160;Providers</text>
<polygon fill="#fb8072" stroke="transparent" points="647.5,-10 647.5,-30 667.5,-30 667.5,-10 647.5,-10"/>
<text text-anchor="start" x="671.2258" y="-15.4" font-family="sans-serif" font-size="14.00" fill="#000000"> &#160;Exports</text>
<g id="clust1" class="cluster">
<title>cluster_PrivateModule</title>
<polygon fill="none" stroke="#000000" stroke-dasharray="1,5" points="8,-70 8,-195 971,-195 971,-70 8,-70"/>
</g>
<g id="clust2" class="cluster">
<title>cluster_PrivateModule_declarations</title>
<polygon fill="none" stroke="#000000" points="16,-78 16,-130 963,-130 963,-78 16,-78"/>
</g>
<!-- CustomersComponent -->
<g id="node1" class="node">
<title>CustomersComponent</title>
<polygon fill="#ffffb3" stroke="#000000" points="954.7148,-122 813.2852,-122 813.2852,-86 954.7148,-86 954.7148,-122"/>
<text text-anchor="middle" x="884" y="-99.8" font-family="Times,serif" font-size="14.00" fill="#000000">CustomersComponent</text>
</g>
<!-- PrivateModule -->
<g id="node7" class="node">
<title>PrivateModule</title>
<polygon fill="#8dd3c7" stroke="#000000" points="526.7036,-187 523.7036,-191 502.7036,-191 499.7036,-187 427.2964,-187 427.2964,-151 526.7036,-151 526.7036,-187"/>
<text text-anchor="middle" x="477" y="-164.8" font-family="Times,serif" font-size="14.00" fill="#000000">PrivateModule</text>
</g>
<!-- CustomersComponent&#45;&gt;PrivateModule -->
<g id="edge1" class="edge">
<title>CustomersComponent&#45;&gt;PrivateModule</title>
<path fill="none" stroke="#000000" d="M884,-122.2843C884,-143.3211 884,-175 884,-175 884,-175 536.9062,-175 536.9062,-175"/>
<polygon fill="#000000" stroke="#000000" points="536.9062,-171.5001 526.9062,-175 536.9062,-178.5001 536.9062,-171.5001"/>
</g>
<!-- GestionComponent -->
<g id="node2" class="node">
<title>GestionComponent</title>
<polygon fill="#ffffb3" stroke="#000000" points="795.3795,-122 670.6205,-122 670.6205,-86 795.3795,-86 795.3795,-122"/>
<text text-anchor="middle" x="733" y="-99.8" font-family="Times,serif" font-size="14.00" fill="#000000">GestionComponent</text>
</g>
<!-- GestionComponent&#45;&gt;PrivateModule -->
<g id="edge2" class="edge">
<title>GestionComponent&#45;&gt;PrivateModule</title>
<path fill="none" stroke="#000000" d="M733,-122.0225C733,-139.3734 733,-163 733,-163 733,-163 536.6629,-163 536.6629,-163"/>
<polygon fill="#000000" stroke="#000000" points="536.663,-159.5001 526.6629,-163 536.6629,-166.5001 536.663,-159.5001"/>
</g>
<!-- GestionCustomersComponent -->
<g id="node3" class="node">
<title>GestionCustomersComponent</title>
<polygon fill="#ffffb3" stroke="#000000" points="652.2618,-122 467.7382,-122 467.7382,-86 652.2618,-86 652.2618,-122"/>
<text text-anchor="middle" x="560" y="-99.8" font-family="Times,serif" font-size="14.00" fill="#000000">GestionCustomersComponent</text>
</g>
<!-- GestionCustomersComponent&#45;&gt;PrivateModule -->
<g id="edge3" class="edge">
<title>GestionCustomersComponent&#45;&gt;PrivateModule</title>
<path fill="none" stroke="#000000" d="M497.1105,-122.1061C497.1105,-122.1061 497.1105,-140.991 497.1105,-140.991"/>
<polygon fill="#000000" stroke="#000000" points="493.6105,-140.9909 497.1105,-150.991 500.6105,-140.991 493.6105,-140.9909"/>
</g>
<!-- ListeComponent -->
<g id="node4" class="node">
<title>ListeComponent</title>
<polygon fill="#ffffb3" stroke="#000000" points="449.8259,-122 340.1741,-122 340.1741,-86 449.8259,-86 449.8259,-122"/>
<text text-anchor="middle" x="395" y="-99.8" font-family="Times,serif" font-size="14.00" fill="#000000">ListeComponent</text>
</g>
<!-- ListeComponent&#45;&gt;PrivateModule -->
<g id="edge4" class="edge">
<title>ListeComponent&#45;&gt;PrivateModule</title>
<path fill="none" stroke="#000000" d="M438.5305,-122.1061C438.5305,-122.1061 438.5305,-140.991 438.5305,-140.991"/>
<polygon fill="#000000" stroke="#000000" points="435.0306,-140.9909 438.5305,-150.991 442.0306,-140.991 435.0306,-140.9909"/>
</g>
<!-- ListecustomersComponent -->
<g id="node5" class="node">
<title>ListecustomersComponent</title>
<polygon fill="#ffffb3" stroke="#000000" points="322.0856,-122 155.9144,-122 155.9144,-86 322.0856,-86 322.0856,-122"/>
<text text-anchor="middle" x="239" y="-99.8" font-family="Times,serif" font-size="14.00" fill="#000000">ListecustomersComponent</text>
</g>
<!-- ListecustomersComponent&#45;&gt;PrivateModule -->
<g id="edge5" class="edge">
<title>ListecustomersComponent&#45;&gt;PrivateModule</title>
<path fill="none" stroke="#000000" d="M239,-122.0225C239,-139.3734 239,-163 239,-163 239,-163 417.3971,-163 417.3971,-163"/>
<polygon fill="#000000" stroke="#000000" points="417.3971,-166.5001 427.3971,-163 417.3971,-159.5001 417.3971,-166.5001"/>
</g>
<!-- UsersComponent -->
<g id="node6" class="node">
<title>UsersComponent</title>
<polygon fill="#ffffb3" stroke="#000000" points="137.7036,-122 24.2964,-122 24.2964,-86 137.7036,-86 137.7036,-122"/>
<text text-anchor="middle" x="81" y="-99.8" font-family="Times,serif" font-size="14.00" fill="#000000">UsersComponent</text>
</g>
<!-- UsersComponent&#45;&gt;PrivateModule -->
<g id="edge6" class="edge">
<title>UsersComponent&#45;&gt;PrivateModule</title>
<path fill="none" stroke="#000000" d="M81,-122.2843C81,-143.3211 81,-175 81,-175 81,-175 417.2473,-175 417.2473,-175"/>
<polygon fill="#000000" stroke="#000000" points="417.2473,-178.5001 427.2473,-175 417.2473,-171.5001 417.2473,-178.5001"/>
</g>
</g>
</svg>
