<?xml version="1.0" encoding="UTF-8" standalone="no"?>
<!DOCTYPE svg PUBLIC "-//W3C//DTD SVG 1.1//EN"
 "http://www.w3.org/Graphics/SVG/1.1/DTD/svg11.dtd">
<!-- Generated by graphviz version 2.40.1 (20161225.0304)
 -->
<!-- Title: dependencies Pages: 1 -->
<svg width="504pt" height="211pt"
 viewBox="0.00 0.00 504.00 211.00" xmlns="http://www.w3.org/2000/svg" xmlns:xlink="http://www.w3.org/1999/xlink">
<g id="graph0" class="graph" transform="scale(1 1) rotate(0) translate(4 207)">
<title>dependencies</title>
<polygon fill="#ffffff" stroke="transparent" points="-4,4 -4,-207 500,-207 500,4 -4,4"/>
<text text-anchor="start" x="227.0091" y="-42.4" font-family="sans-serif" font-weight="bold" font-size="14.00" fill="#000000">Legend</text>
<polygon fill="#ffffb3" stroke="transparent" points="14,-10 14,-30 34,-30 34,-10 14,-10"/>
<text text-anchor="start" x="37.629" y="-15.4" font-family="sans-serif" font-size="14.00" fill="#000000"> &#160;Declarations</text>
<polygon fill="#8dd3c7" stroke="transparent" points="127,-10 127,-30 147,-30 147,-10 127,-10"/>
<text text-anchor="start" x="150.7251" y="-15.4" font-family="sans-serif" font-size="14.00" fill="#000000"> &#160;Module</text>
<polygon fill="#80b1d3" stroke="transparent" points="213,-10 213,-30 233,-30 233,-10 213,-10"/>
<text text-anchor="start" x="236.7812" y="-15.4" font-family="sans-serif" font-size="14.00" fill="#000000"> &#160;Bootstrap</text>
<polygon fill="#fdb462" stroke="transparent" points="310,-10 310,-30 330,-30 330,-10 310,-10"/>
<text text-anchor="start" x="333.6732" y="-15.4" font-family="sans-serif" font-size="14.00" fill="#000000"> &#160;Providers</text>
<polygon fill="#fb8072" stroke="transparent" points="406,-10 406,-30 426,-30 426,-10 406,-10"/>
<text text-anchor="start" x="429.7258" y="-15.4" font-family="sans-serif" font-size="14.00" fill="#000000"> &#160;Exports</text>
<g id="clust1" class="cluster">
<title>cluster_UsersModule</title>
<polygon fill="none" stroke="#000000" stroke-dasharray="1,5" points="26,-70 26,-195 470,-195 470,-70 26,-70"/>
</g>
<g id="clust2" class="cluster">
<title>cluster_UsersModule_declarations</title>
<polygon fill="none" stroke="#000000" points="194,-78 194,-130 462,-130 462,-78 194,-78"/>
</g>
<g id="clust5" class="cluster">
<title>cluster_UsersModule_imports</title>
<polygon fill="none" stroke="#000000" points="34,-78 34,-130 186,-130 186,-78 34,-78"/>
</g>
<!-- GestionComponent -->
<g id="node1" class="node">
<title>GestionComponent</title>
<polygon fill="#ffffb3" stroke="#000000" points="454.3795,-122 329.6205,-122 329.6205,-86 454.3795,-86 454.3795,-122"/>
<text text-anchor="middle" x="392" y="-99.8" font-family="Times,serif" font-size="14.00" fill="#000000">GestionComponent</text>
</g>
<!-- UsersModule -->
<g id="node3" class="node">
<title>UsersModule</title>
<polygon fill="#8dd3c7" stroke="#000000" points="302.9218,-187 299.9218,-191 278.9218,-191 275.9218,-187 211.0782,-187 211.0782,-151 302.9218,-151 302.9218,-187"/>
<text text-anchor="middle" x="257" y="-164.8" font-family="Times,serif" font-size="14.00" fill="#000000">UsersModule</text>
</g>
<!-- GestionComponent&#45;&gt;UsersModule -->
<g id="edge1" class="edge">
<title>GestionComponent&#45;&gt;UsersModule</title>
<path fill="none" stroke="#000000" d="M392,-122.1061C392,-141.3391 392,-169 392,-169 392,-169 313.0818,-169 313.0818,-169"/>
<polygon fill="#000000" stroke="#000000" points="313.0818,-165.5001 303.0818,-169 313.0817,-172.5001 313.0818,-165.5001"/>
</g>
<!-- ListeComponent -->
<g id="node2" class="node">
<title>ListeComponent</title>
<polygon fill="#ffffb3" stroke="#000000" points="311.8259,-122 202.1741,-122 202.1741,-86 311.8259,-86 311.8259,-122"/>
<text text-anchor="middle" x="257" y="-99.8" font-family="Times,serif" font-size="14.00" fill="#000000">ListeComponent</text>
</g>
<!-- ListeComponent&#45;&gt;UsersModule -->
<g id="edge2" class="edge">
<title>ListeComponent&#45;&gt;UsersModule</title>
<path fill="none" stroke="#000000" d="M257,-122.1061C257,-122.1061 257,-140.991 257,-140.991"/>
<polygon fill="#000000" stroke="#000000" points="253.5001,-140.9909 257,-150.991 260.5001,-140.991 253.5001,-140.9909"/>
</g>
<!-- UsersRoutingModule -->
<g id="node4" class="node">
<title>UsersRoutingModule</title>
<polygon fill="#8dd3c7" stroke="#000000" points="178.0394,-122 175.0394,-126 154.0394,-126 151.0394,-122 41.9606,-122 41.9606,-86 178.0394,-86 178.0394,-122"/>
<text text-anchor="middle" x="110" y="-99.8" font-family="Times,serif" font-size="14.00" fill="#000000">UsersRoutingModule</text>
</g>
<!-- UsersRoutingModule&#45;&gt;UsersModule -->
<g id="edge3" class="edge">
<title>UsersRoutingModule&#45;&gt;UsersModule</title>
<path fill="none" stroke="#000000" d="M110,-122.1061C110,-141.3391 110,-169 110,-169 110,-169 200.8916,-169 200.8916,-169"/>
<polygon fill="#000000" stroke="#000000" points="200.8916,-172.5001 210.8916,-169 200.8916,-165.5001 200.8916,-172.5001"/>
</g>
</g>
</svg>
