<?xml version="1.0" encoding="UTF-8" standalone="no"?>
<!DOCTYPE svg PUBLIC "-//W3C//DTD SVG 1.1//EN"
 "http://www.w3.org/Graphics/SVG/1.1/DTD/svg11.dtd">
<!-- Generated by graphviz version 2.40.1 (20161225.0304)
 -->
<!-- Title: dependencies Pages: 1 -->
<svg width="1145pt" height="284pt"
 viewBox="0.00 0.00 1145.00 284.00" xmlns="http://www.w3.org/2000/svg" xmlns:xlink="http://www.w3.org/1999/xlink">
<g id="graph0" class="graph" transform="scale(1 1) rotate(0) translate(4 280)">
<title>dependencies</title>
<polygon fill="#ffffff" stroke="transparent" points="-4,4 -4,-280 1141,-280 1141,4 -4,4"/>
<text text-anchor="start" x="547.5091" y="-42.4" font-family="sans-serif" font-weight="bold" font-size="14.00" fill="#000000">Legend</text>
<polygon fill="#ffffb3" stroke="transparent" points="334.5,-10 334.5,-30 354.5,-30 354.5,-10 334.5,-10"/>
<text text-anchor="start" x="358.129" y="-15.4" font-family="sans-serif" font-size="14.00" fill="#000000"> &#160;Declarations</text>
<polygon fill="#8dd3c7" stroke="transparent" points="447.5,-10 447.5,-30 467.5,-30 467.5,-10 447.5,-10"/>
<text text-anchor="start" x="471.2251" y="-15.4" font-family="sans-serif" font-size="14.00" fill="#000000"> &#160;Module</text>
<polygon fill="#80b1d3" stroke="transparent" points="533.5,-10 533.5,-30 553.5,-30 553.5,-10 533.5,-10"/>
<text text-anchor="start" x="557.2812" y="-15.4" font-family="sans-serif" font-size="14.00" fill="#000000"> &#160;Bootstrap</text>
<polygon fill="#fdb462" stroke="transparent" points="630.5,-10 630.5,-30 650.5,-30 650.5,-10 630.5,-10"/>
<text text-anchor="start" x="654.1732" y="-15.4" font-family="sans-serif" font-size="14.00" fill="#000000"> &#160;Providers</text>
<polygon fill="#fb8072" stroke="transparent" points="726.5,-10 726.5,-30 746.5,-30 746.5,-10 726.5,-10"/>
<text text-anchor="start" x="750.2258" y="-15.4" font-family="sans-serif" font-size="14.00" fill="#000000"> &#160;Exports</text>
<g id="clust1" class="cluster">
<title>cluster_AppModule</title>
<polygon fill="none" stroke="#000000" stroke-dasharray="1,5" points="8,-70 8,-268 1129,-268 1129,-70 8,-70"/>
</g>
<g id="clust2" class="cluster">
<title>cluster_AppModule_declarations</title>
<polygon fill="none" stroke="#000000" points="168,-78 168,-130 1121,-130 1121,-78 168,-78"/>
</g>
<g id="clust10" class="cluster">
<title>cluster_AppModule_imports</title>
<polygon fill="none" stroke="#000000" points="16,-78 16,-130 160,-130 160,-78 16,-78"/>
</g>
<g id="clust12" class="cluster">
<title>cluster_AppModule_bootstrap</title>
<polygon fill="none" stroke="#000000" points="521,-208 521,-260 645,-260 645,-208 521,-208"/>
</g>
<!-- AccueilComponent -->
<g id="node1" class="node">
<title>AccueilComponent</title>
<polygon fill="#ffffb3" stroke="#000000" points="1113.3641,-122 988.6359,-122 988.6359,-86 1113.3641,-86 1113.3641,-122"/>
<text text-anchor="middle" x="1051" y="-99.8" font-family="Times,serif" font-size="14.00" fill="#000000">AccueilComponent</text>
</g>
<!-- AppModule -->
<g id="node8" class="node">
<title>AppModule</title>
<polygon fill="#8dd3c7" stroke="#000000" points="624.6571,-187 621.6571,-191 600.6571,-191 597.6571,-187 541.3429,-187 541.3429,-151 624.6571,-151 624.6571,-187"/>
<text text-anchor="middle" x="583" y="-164.8" font-family="Times,serif" font-size="14.00" fill="#000000">AppModule</text>
</g>
<!-- AccueilComponent&#45;&gt;AppModule -->
<g id="edge1" class="edge">
<title>AccueilComponent&#45;&gt;AppModule</title>
<path fill="none" stroke="#000000" d="M1051,-122.2921C1051,-144.2057 1051,-178 1051,-178 1051,-178 634.9437,-178 634.9437,-178"/>
<polygon fill="#000000" stroke="#000000" points="634.9438,-174.5001 624.9437,-178 634.9437,-181.5001 634.9438,-174.5001"/>
</g>
<!-- AppComponent -->
<g id="node2" class="node">
<title>AppComponent</title>
<polygon fill="#ffffb3" stroke="#000000" points="970.9399,-122 865.0601,-122 865.0601,-86 970.9399,-86 970.9399,-122"/>
<text text-anchor="middle" x="918" y="-99.8" font-family="Times,serif" font-size="14.00" fill="#000000">AppComponent</text>
</g>
<!-- AppComponent&#45;&gt;AppModule -->
<g id="edge2" class="edge">
<title>AppComponent&#45;&gt;AppModule</title>
<path fill="none" stroke="#000000" d="M918,-122.1061C918,-141.3391 918,-169 918,-169 918,-169 634.7506,-169 634.7506,-169"/>
<polygon fill="#000000" stroke="#000000" points="634.7507,-165.5001 624.7506,-169 634.7506,-172.5001 634.7507,-165.5001"/>
</g>
<!-- ContactComponent -->
<g id="node3" class="node">
<title>ContactComponent</title>
<polygon fill="#ffffb3" stroke="#000000" points="847.3795,-122 722.6205,-122 722.6205,-86 847.3795,-86 847.3795,-122"/>
<text text-anchor="middle" x="785" y="-99.8" font-family="Times,serif" font-size="14.00" fill="#000000">ContactComponent</text>
</g>
<!-- ContactComponent&#45;&gt;AppModule -->
<g id="edge3" class="edge">
<title>ContactComponent&#45;&gt;AppModule</title>
<path fill="none" stroke="#000000" d="M785,-122.027C785,-138.3976 785,-160 785,-160 785,-160 634.8545,-160 634.8545,-160"/>
<polygon fill="#000000" stroke="#000000" points="634.8546,-156.5001 624.8545,-160 634.8545,-163.5001 634.8546,-156.5001"/>
</g>
<!-- ErrorComponent -->
<g id="node4" class="node">
<title>ErrorComponent</title>
<polygon fill="#ffffb3" stroke="#000000" points="704.3669,-122 593.6331,-122 593.6331,-86 704.3669,-86 704.3669,-122"/>
<text text-anchor="middle" x="649" y="-99.8" font-family="Times,serif" font-size="14.00" fill="#000000">ErrorComponent</text>
</g>
<!-- ErrorComponent&#45;&gt;AppModule -->
<g id="edge4" class="edge">
<title>ErrorComponent&#45;&gt;AppModule</title>
<path fill="none" stroke="#000000" d="M609.1974,-122.1061C609.1974,-122.1061 609.1974,-140.991 609.1974,-140.991"/>
<polygon fill="#000000" stroke="#000000" points="605.6975,-140.9909 609.1974,-150.991 612.6975,-140.991 605.6975,-140.9909"/>
</g>
<!-- FooterComponent -->
<g id="node5" class="node">
<title>FooterComponent</title>
<polygon fill="#ffffb3" stroke="#000000" points="575.8809,-122 458.1191,-122 458.1191,-86 575.8809,-86 575.8809,-122"/>
<text text-anchor="middle" x="517" y="-99.8" font-family="Times,serif" font-size="14.00" fill="#000000">FooterComponent</text>
</g>
<!-- FooterComponent&#45;&gt;AppModule -->
<g id="edge5" class="edge">
<title>FooterComponent&#45;&gt;AppModule</title>
<path fill="none" stroke="#000000" d="M558.5561,-122.1061C558.5561,-122.1061 558.5561,-140.991 558.5561,-140.991"/>
<polygon fill="#000000" stroke="#000000" points="555.0562,-140.9909 558.5561,-150.991 562.0562,-140.991 555.0562,-140.9909"/>
</g>
<!-- HeaderComponent -->
<g id="node6" class="node">
<title>HeaderComponent</title>
<polygon fill="#ffffb3" stroke="#000000" points="439.7437,-122 318.2563,-122 318.2563,-86 439.7437,-86 439.7437,-122"/>
<text text-anchor="middle" x="379" y="-99.8" font-family="Times,serif" font-size="14.00" fill="#000000">HeaderComponent</text>
</g>
<!-- HeaderComponent&#45;&gt;AppModule -->
<g id="edge6" class="edge">
<title>HeaderComponent&#45;&gt;AppModule</title>
<path fill="none" stroke="#000000" d="M379,-122.027C379,-138.3976 379,-160 379,-160 379,-160 531.2253,-160 531.2253,-160"/>
<polygon fill="#000000" stroke="#000000" points="531.2253,-163.5001 541.2253,-160 531.2253,-156.5001 531.2253,-163.5001"/>
</g>
<!-- ServiceComponent -->
<g id="node7" class="node">
<title>ServiceComponent</title>
<polygon fill="#ffffb3" stroke="#000000" points="299.8104,-122 176.1896,-122 176.1896,-86 299.8104,-86 299.8104,-122"/>
<text text-anchor="middle" x="238" y="-99.8" font-family="Times,serif" font-size="14.00" fill="#000000">ServiceComponent</text>
</g>
<!-- ServiceComponent&#45;&gt;AppModule -->
<g id="edge7" class="edge">
<title>ServiceComponent&#45;&gt;AppModule</title>
<path fill="none" stroke="#000000" d="M238,-122.1061C238,-141.3391 238,-169 238,-169 238,-169 531.0411,-169 531.0411,-169"/>
<polygon fill="#000000" stroke="#000000" points="531.0412,-172.5001 541.0411,-169 531.0411,-165.5001 531.0412,-172.5001"/>
</g>
<!-- AppComponent  -->
<g id="node10" class="node">
<title>AppComponent </title>
<polygon fill="#80b1d3" stroke="#000000" points="637.439,-252 528.561,-252 528.561,-216 637.439,-216 637.439,-252"/>
<text text-anchor="middle" x="583" y="-229.8" font-family="Times,serif" font-size="14.00" fill="#000000">AppComponent </text>
</g>
<!-- AppModule&#45;&gt;AppComponent  -->
<g id="edge9" class="edge">
<title>AppModule&#45;&gt;AppComponent </title>
<path fill="none" stroke="#000000" stroke-dasharray="1,5" d="M583,-187.1061C583,-187.1061 583,-205.991 583,-205.991"/>
<polygon fill="#000000" stroke="#000000" points="579.5001,-205.9909 583,-215.991 586.5001,-205.991 579.5001,-205.9909"/>
</g>
<!-- AppRoutingModule -->
<g id="node9" class="node">
<title>AppRoutingModule</title>
<polygon fill="#8dd3c7" stroke="#000000" points="152.2744,-122 149.2744,-126 128.2744,-126 125.2744,-122 23.7256,-122 23.7256,-86 152.2744,-86 152.2744,-122"/>
<text text-anchor="middle" x="88" y="-99.8" font-family="Times,serif" font-size="14.00" fill="#000000">AppRoutingModule</text>
</g>
<!-- AppRoutingModule&#45;&gt;AppModule -->
<g id="edge8" class="edge">
<title>AppRoutingModule&#45;&gt;AppModule</title>
<path fill="none" stroke="#000000" d="M88,-122.2921C88,-144.2057 88,-178 88,-178 88,-178 531.2232,-178 531.2232,-178"/>
<polygon fill="#000000" stroke="#000000" points="531.2232,-181.5001 541.2232,-178 531.2232,-174.5001 531.2232,-181.5001"/>
</g>
</g>
</svg>
