<?xml version="1.0" encoding="UTF-8" standalone="no"?>
<!DOCTYPE svg PUBLIC "-//W3C//DTD SVG 1.1//EN"
 "http://www.w3.org/Graphics/SVG/1.1/DTD/svg11.dtd">
<!-- Generated by graphviz version 2.40.1 (20161225.0304)
 -->
<!-- Title: dependencies Pages: 1 -->
<svg width="612pt" height="211pt"
 viewBox="0.00 0.00 612.00 211.00" xmlns="http://www.w3.org/2000/svg" xmlns:xlink="http://www.w3.org/1999/xlink">
<g id="graph0" class="graph" transform="scale(1 1) rotate(0) translate(4 207)">
<title>dependencies</title>
<polygon fill="#ffffff" stroke="transparent" points="-4,4 -4,-207 608,-207 608,4 -4,4"/>
<text text-anchor="start" x="281.0091" y="-42.4" font-family="sans-serif" font-weight="bold" font-size="14.00" fill="#000000">Legend</text>
<polygon fill="#ffffb3" stroke="transparent" points="68,-10 68,-30 88,-30 88,-10 68,-10"/>
<text text-anchor="start" x="91.629" y="-15.4" font-family="sans-serif" font-size="14.00" fill="#000000"> &#160;Declarations</text>
<polygon fill="#8dd3c7" stroke="transparent" points="181,-10 181,-30 201,-30 201,-10 181,-10"/>
<text text-anchor="start" x="204.7251" y="-15.4" font-family="sans-serif" font-size="14.00" fill="#000000"> &#160;Module</text>
<polygon fill="#80b1d3" stroke="transparent" points="267,-10 267,-30 287,-30 287,-10 267,-10"/>
<text text-anchor="start" x="290.7812" y="-15.4" font-family="sans-serif" font-size="14.00" fill="#000000"> &#160;Bootstrap</text>
<polygon fill="#fdb462" stroke="transparent" points="364,-10 364,-30 384,-30 384,-10 364,-10"/>
<text text-anchor="start" x="387.6732" y="-15.4" font-family="sans-serif" font-size="14.00" fill="#000000"> &#160;Providers</text>
<polygon fill="#fb8072" stroke="transparent" points="460,-10 460,-30 480,-30 480,-10 460,-10"/>
<text text-anchor="start" x="483.7258" y="-15.4" font-family="sans-serif" font-size="14.00" fill="#000000"> &#160;Exports</text>
<g id="clust1" class="cluster">
<title>cluster_CustomersModule</title>
<polygon fill="none" stroke="#000000" stroke-dasharray="1,5" points="8,-70 8,-195 596,-195 596,-70 8,-70"/>
</g>
<g id="clust2" class="cluster">
<title>cluster_CustomersModule_declarations</title>
<polygon fill="none" stroke="#000000" points="204,-78 204,-130 588,-130 588,-78 204,-78"/>
</g>
<g id="clust5" class="cluster">
<title>cluster_CustomersModule_imports</title>
<polygon fill="none" stroke="#000000" points="16,-78 16,-130 196,-130 196,-78 16,-78"/>
</g>
<!-- GestionCustomersComponent -->
<g id="node1" class="node">
<title>GestionCustomersComponent</title>
<polygon fill="#ffffb3" stroke="#000000" points="580.2618,-122 395.7382,-122 395.7382,-86 580.2618,-86 580.2618,-122"/>
<text text-anchor="middle" x="488" y="-99.8" font-family="Times,serif" font-size="14.00" fill="#000000">GestionCustomersComponent</text>
</g>
<!-- CustomersModule -->
<g id="node3" class="node">
<title>CustomersModule</title>
<polygon fill="#8dd3c7" stroke="#000000" points="354.9328,-187 351.9328,-191 330.9328,-191 327.9328,-187 235.0672,-187 235.0672,-151 354.9328,-151 354.9328,-187"/>
<text text-anchor="middle" x="295" y="-164.8" font-family="Times,serif" font-size="14.00" fill="#000000">CustomersModule</text>
</g>
<!-- GestionCustomersComponent&#45;&gt;CustomersModule -->
<g id="edge1" class="edge">
<title>GestionCustomersComponent&#45;&gt;CustomersModule</title>
<path fill="none" stroke="#000000" d="M488,-122.1061C488,-141.3391 488,-169 488,-169 488,-169 364.7447,-169 364.7447,-169"/>
<polygon fill="#000000" stroke="#000000" points="364.7447,-165.5001 354.7447,-169 364.7446,-172.5001 364.7447,-165.5001"/>
</g>
<!-- ListecustomersComponent -->
<g id="node2" class="node">
<title>ListecustomersComponent</title>
<polygon fill="#ffffb3" stroke="#000000" points="378.0856,-122 211.9144,-122 211.9144,-86 378.0856,-86 378.0856,-122"/>
<text text-anchor="middle" x="295" y="-99.8" font-family="Times,serif" font-size="14.00" fill="#000000">ListecustomersComponent</text>
</g>
<!-- ListecustomersComponent&#45;&gt;CustomersModule -->
<g id="edge2" class="edge">
<title>ListecustomersComponent&#45;&gt;CustomersModule</title>
<path fill="none" stroke="#000000" d="M295,-122.1061C295,-122.1061 295,-140.991 295,-140.991"/>
<polygon fill="#000000" stroke="#000000" points="291.5001,-140.9909 295,-150.991 298.5001,-140.991 291.5001,-140.9909"/>
</g>
<!-- CustomersRoutingModule -->
<g id="node4" class="node">
<title>CustomersRoutingModule</title>
<polygon fill="#8dd3c7" stroke="#000000" points="188.0504,-122 185.0504,-126 164.0504,-126 161.0504,-122 23.9496,-122 23.9496,-86 188.0504,-86 188.0504,-122"/>
<text text-anchor="middle" x="106" y="-99.8" font-family="Times,serif" font-size="14.00" fill="#000000">CustomersRoutingModule</text>
</g>
<!-- CustomersRoutingModule&#45;&gt;CustomersModule -->
<g id="edge3" class="edge">
<title>CustomersRoutingModule&#45;&gt;CustomersModule</title>
<path fill="none" stroke="#000000" d="M106,-122.1061C106,-141.3391 106,-169 106,-169 106,-169 225.1992,-169 225.1992,-169"/>
<polygon fill="#000000" stroke="#000000" points="225.1993,-172.5001 235.1992,-169 225.1992,-165.5001 225.1993,-172.5001"/>
</g>
</g>
</svg>
